<svg width="25" height="25" fill="none" xmlns="http://www.w3.org/2000/svg"><g clip-path="url(#a)"><path d="M23.62 0H1.38C.62 0 0 .62 0 1.38v22.24C0 24.38.62 25 1.38 25h22.24c.76 0 1.38-.62 1.38-1.38V1.38C25 .62 24.38 0 23.62 0Z" fill="#4267B2"/><path d="M17.26 25v-9.67h3.26l.49-3.78h-3.75V9.14c0-1.1.3-1.84 1.87-1.84h1.99V3.92a26.7 26.7 0 0 0-2.91-.14c-2.88 0-4.86 1.75-4.86 4.98v2.79h-3.24v3.78h3.24V25h3.91Z" fill="#fff"/></g><defs><clipPath id="a"><path fill="#fff" d="M0 0h25v25H0z"/></clipPath></defs></svg>