<svg width="262" height="19" fill="none" xmlns="http://www.w3.org/2000/svg"><path d="M1.28 18a.58.58 0 0 1-.43-.17.58.58 0 0 1-.17-.43V1.8c0-.18.06-.32.17-.43a.58.58 0 0 1 .43-.17h2.54c.28 0 .47.06.58.2.13.1.2.2.24.26l5.86 9.24V1.8c0-.18.05-.32.16-.43a.58.58 0 0 1 .44-.17h2.88c.17 0 .32.06.43.17.11.11.17.25.17.43v15.6c0 .16-.06.3-.17.43a.58.58 0 0 1-.43.17H11.4c-.26 0-.45-.06-.58-.2a3.24 3.24 0 0 1-.21-.26L4.76 8.66v8.74c0 .18-.06.32-.17.43a.58.58 0 0 1-.43.17H1.28Zm15.69 0a.54.54 0 0 1-.36-.14.54.54 0 0 1-.14-.36c0-.08 0-.16.02-.22l5.64-15.4a.93.93 0 0 1 .29-.46.93.93 0 0 1 .65-.22h3.55c.27 0 .48.07.62.22.16.12.27.28.31.45l5.62 15.41c.03.06.05.14.05.22a.5.5 0 0 1-.17.36c-.1.1-.22.14-.36.14h-2.95c-.24 0-.43-.06-.55-.17a1.06 1.06 0 0 1-.22-.33l-.94-2.45h-6.4l-.92 2.45c-.03.1-.1.2-.21.33-.11.11-.3.17-.58.17h-2.95Zm5.64-6.4h4.46l-2.25-6.34-2.21 6.33Zm13.1 6.4a.64.64 0 0 1-.43-.17.58.58 0 0 1-.17-.43V1.8c0-.18.06-.32.17-.43a.64.64 0 0 1 .43-.17h2.6c.25 0 .44.07.57.22a1 1 0 0 1 .26.3l4.23 7.6 4.22-7.6c.05-.07.13-.18.24-.3.13-.15.33-.22.6-.22H51c.17 0 .32.06.43.17.13.11.2.25.2.43v15.6c0 .18-.07.32-.2.43A.58.58 0 0 1 51 18h-2.86a.67.67 0 0 1-.45-.17.58.58 0 0 1-.17-.43v-9l-2.71 5.02a1.1 1.1 0 0 1-.3.38.77.77 0 0 1-.52.17h-1.25a.77.77 0 0 1-.53-.17 1.43 1.43 0 0 1-.3-.38L39.18 8.4v9c0 .18-.06.32-.17.43a.58.58 0 0 1-.43.17h-2.88Zm18.3 0a.54.54 0 0 1-.37-.14.54.54 0 0 1-.14-.36c0-.08 0-.16.02-.22l5.64-15.4a.93.93 0 0 1 .29-.46.93.93 0 0 1 .65-.22h3.55c.27 0 .48.07.62.22.16.12.27.28.32.45l5.61 15.41c.03.06.05.14.05.22a.5.5 0 0 1-.17.36c-.1.1-.21.14-.36.14h-2.95c-.24 0-.42-.06-.55-.17a1.06 1.06 0 0 1-.22-.33l-.93-2.45h-6.41l-.91 2.45c-.04.1-.1.2-.22.33-.11.11-.3.17-.58.17H54Zm5.63-6.4h4.47l-2.26-6.34-2.2 6.33Zm13.1 6.4a.58.58 0 0 1-.43-.17.58.58 0 0 1-.17-.43V1.8c0-.18.06-.32.17-.43a.58.58 0 0 1 .43-.17h2.54c.28 0 .47.06.58.2.13.1.2.2.24.26l5.86 9.24V1.8c0-.18.05-.32.16-.43a.58.58 0 0 1 .44-.17h2.88c.17 0 .32.06.43.17.11.11.17.25.17.43v15.6c0 .16-.06.3-.17.43a.58.58 0 0 1-.43.17h-2.57c-.26 0-.45-.06-.58-.2a3.24 3.24 0 0 1-.21-.26l-5.86-8.88v8.74c0 .18-.06.32-.17.43a.58.58 0 0 1-.43.17h-2.88Zm23.59.24a9.55 9.55 0 0 1-3.94-.74 5.91 5.91 0 0 1-2.54-2.21 7.4 7.4 0 0 1-.99-3.55 94.15 94.15 0 0 1 0-4.42c.07-1.36.4-2.51 1.01-3.46a5.8 5.8 0 0 1 2.57-2.16c1.1-.5 2.4-.74 3.89-.74 1.2 0 2.26.15 3.19.46.93.28 1.7.68 2.33 1.17.64.5 1.12 1.04 1.44 1.63.33.6.5 1.18.52 1.76a.4.4 0 0 1-.14.36c-.1.1-.22.14-.36.14h-3.5a.93.93 0 0 1-.41-.07.91.91 0 0 1-.22-.27 3.22 3.22 0 0 0-.5-.74c-.2-.27-.5-.5-.89-.7-.37-.19-.86-.28-1.46-.28-.92 0-1.64.24-2.16.72-.52.48-.8 1.24-.84 2.3a60.57 60.57 0 0 0 0 4.18c.04 1.12.34 1.92.88 2.42.55.5 1.27.74 2.16.74.61 0 1.15-.1 1.61-.3.48-.22.86-.54 1.13-.97.27-.45.4-1.01.4-1.7v-.46h-2.25a.67.67 0 0 1-.45-.17.67.67 0 0 1-.17-.45V8.95c0-.17.05-.32.17-.43.12-.13.28-.2.45-.2h6.05c.18 0 .32.07.43.2.12.11.17.26.17.43v2.74c0 1.37-.31 2.55-.94 3.53a6.07 6.07 0 0 1-2.66 2.25 9.62 9.62 0 0 1-3.98.77Zm9-.24a.54.54 0 0 1-.36-.14.54.54 0 0 1-.14-.36c0-.08 0-.16.02-.22l5.64-15.4a.93.93 0 0 1 .29-.46.93.93 0 0 1 .64-.22h3.56c.27 0 .48.07.62.22.16.12.27.28.31.45l5.62 15.41c.03.06.05.14.05.22a.5.5 0 0 1-.17.36c-.1.1-.22.14-.36.14h-2.95c-.24 0-.43-.06-.55-.17a1.06 1.06 0 0 1-.22-.33l-.94-2.45H110l-.92 2.45c-.03.1-.1.2-.21.33-.11.11-.3.17-.58.17h-2.95Zm5.64-6.4h4.46l-2.25-6.34-2.21 6.33Zm13.1 6.4a.58.58 0 0 1-.43-.17.58.58 0 0 1-.17-.43V1.8c0-.18.06-.32.17-.43a.58.58 0 0 1 .43-.17h2.54c.28 0 .47.06.58.2.13.1.2.2.24.26l5.85 9.24V1.8c0-.18.06-.32.17-.43a.58.58 0 0 1 .44-.17h2.88c.17 0 .31.06.43.17.1.11.17.25.17.43v15.6c0 .16-.06.3-.17.43a.58.58 0 0 1-.44.17h-2.56c-.26 0-.45-.06-.58-.2a3.24 3.24 0 0 1-.22-.26l-5.85-8.88v8.74c0 .18-.06.32-.17.43a.58.58 0 0 1-.43.17h-2.88Zm17.25 0a.58.58 0 0 1-.43-.17.58.58 0 0 1-.17-.43V1.8c0-.18.06-.32.17-.43a.58.58 0 0 1 .43-.17h3.17c.16 0 .3.06.4.17.13.11.2.25.2.43v12.58h7.25c.17 0 .31.06.43.19.13.11.19.25.19.43v2.4c0 .18-.06.32-.2.43a.58.58 0 0 1-.42.17h-11.02Zm14.32 0a.58.58 0 0 1-.43-.17.58.58 0 0 1-.17-.43V1.8c0-.18.06-.32.17-.43a.58.58 0 0 1 .43-.17h3.22c.17 0 .31.06.43.17.1.11.17.25.17.43v15.6c0 .18-.06.32-.17.43a.58.58 0 0 1-.44.17h-3.21Zm7.78 0a.58.58 0 0 1-.43-.17.58.58 0 0 1-.17-.43V1.8c0-.18.06-.32.17-.43a.58.58 0 0 1 .43-.17h3.03c.17 0 .31.06.43.17.1.11.16.25.16.43v5.33l4.45-5.47a1.1 1.1 0 0 1 .93-.46h3.46c.14 0 .26.06.36.17.1.1.14.2.14.33 0 .12-.03.21-.1.3l-5.73 7.24 6.2 7.97c.06.06.09.16.09.29a.5.5 0 0 1-.17.36c-.1.1-.2.14-.34.14h-3.57c-.3 0-.51-.06-.67-.2a2.34 2.34 0 0 1-.3-.28l-4.75-5.93v5.81c0 .18-.05.32-.16.43a.58.58 0 0 1-.44.17h-3.02Zm15.9 0a.58.58 0 0 1-.44-.17.58.58 0 0 1-.17-.43V1.8c0-.18.06-.32.17-.43a.58.58 0 0 1 .43-.17h3.17c.16 0 .3.06.4.17.13.11.2.25.2.43v12.58h7.25c.17 0 .32.06.43.19.13.11.2.25.2.43v2.4c0 .18-.07.32-.2.43a.58.58 0 0 1-.43.17H179.3Zm12.75 0a.54.54 0 0 1-.36-.14.54.54 0 0 1-.14-.36c0-.08 0-.16.02-.22l5.64-15.4a.93.93 0 0 1 .29-.46.93.93 0 0 1 .65-.22h3.55c.27 0 .48.07.62.22.16.12.27.28.32.45l5.61 15.41c.03.06.05.14.05.22a.5.5 0 0 1-.17.36c-.1.1-.21.14-.36.14h-2.95c-.24 0-.42-.06-.55-.17a1.06 1.06 0 0 1-.22-.33l-.93-2.45h-6.41l-.91 2.45c-.04.1-.1.2-.22.33-.11.11-.3.17-.58.17h-2.95Zm5.64-6.4h4.47l-2.26-6.34-2.2 6.33Zm13.1 6.4a.58.58 0 0 1-.43-.17.58.58 0 0 1-.17-.43V1.8c0-.18.06-.32.17-.43a.58.58 0 0 1 .43-.17h6.53c2.06 0 3.69.48 4.87 1.44 1.2.94 1.8 2.29 1.8 4.03 0 1.14-.28 2.1-.84 2.88a5.1 5.1 0 0 1-2.16 1.78l3.31 5.9c.05.1.08.19.08.27a.5.5 0 0 1-.17.36c-.1.1-.22.14-.36.14h-3.17c-.3 0-.53-.07-.67-.22-.15-.16-.25-.3-.31-.43l-2.74-5.28h-2.47v5.33c0 .18-.06.32-.17.43a.58.58 0 0 1-.43.17h-3.1Zm3.7-9.31h2.78c.75 0 1.31-.19 1.68-.55a2 2 0 0 0 .58-1.52 2.1 2.1 0 0 0-.56-1.5c-.35-.4-.92-.58-1.7-.58h-2.78v4.15ZM231.84 18a.67.67 0 0 1-.45-.17.58.58 0 0 1-.17-.43v-1.7c0-.12.03-.28.1-.5.06-.25.23-.47.5-.68l2.5-2.45c1.27-.97 2.32-1.8 3.14-2.47.83-.69 1.45-1.3 1.85-1.82.4-.53.6-1.03.6-1.5 0-.54-.15-.98-.44-1.34-.27-.36-.75-.55-1.44-.55-.46 0-.85.1-1.17.31-.3.2-.54.45-.7.77-.16.32-.27.65-.33.99a.67.67 0 0 1-.34.43.97.97 0 0 1-.48.12h-3a.49.49 0 0 1-.5-.5c.01-.77.17-1.5.48-2.17a6.09 6.09 0 0 1 3.36-3 7.9 7.9 0 0 1 2.68-.43c1.36 0 2.52.22 3.46.65a4.86 4.86 0 0 1 2.18 1.82c.5.77.75 1.68.75 2.72 0 .78-.18 1.52-.53 2.2a7.3 7.3 0 0 1-1.46 1.95c-.63.6-1.37 1.24-2.24 1.9l-2.2 2.23h6.16c.18 0 .32.05.44.16.12.12.19.26.19.44v2.42c0 .18-.07.32-.2.43a.58.58 0 0 1-.43.17h-12.3Zm23.25 0a.64.64 0 0 1-.44-.17.58.58 0 0 1-.16-.43v-2.71h-7.47a.64.64 0 0 1-.43-.17.58.58 0 0 1-.17-.43V11.8c0-.15.03-.27.07-.39l.2-.36 6.98-9.45c.2-.27.5-.41.89-.41h3.48c.17 0 .32.06.43.17.13.11.2.25.2.43v9.31h2.1c.2 0 .35.07.46.2.11.1.17.24.17.4v2.38c0 .17-.07.32-.2.43a.56.56 0 0 1-.4.17h-2.14v2.71c0 .18-.06.32-.19.43a.58.58 0 0 1-.43.17h-2.95Zm-4.54-6.72h4.03V5.62l-4.03 5.66Z" fill="#fff"/></svg>