<svg width="25" height="25" fill="none" xmlns="http://www.w3.org/2000/svg"><g clip-path="url(#a)"><path d="M1.56 1.7C-.4 3.74 0 5.91 0 12.5c0 5.46-.95 10.95 4.04 12.24 1.56.4 15.38.4 16.93 0 2.08-.54 3.77-2.23 4-5.17.04-.4.04-13.73 0-14.15-.24-3.13-2.17-4.94-4.71-5.3-.58-.09-.7-.11-3.69-.12-10.6 0-12.92-.47-15 1.7Z" fill="url(#b)"/><path d="M12.5 3.27c-3.78 0-7.38-.34-8.75 3.18-.56 1.46-.48 3.35-.48 6.05 0 2.37-.08 4.6.48 6.05 1.37 3.52 5 3.18 8.75 3.18 3.62 0 7.35.38 8.74-3.18.57-1.47.49-3.33.49-6.05 0-3.6.2-5.93-1.55-7.68C18.4 3.05 16 3.27 12.48 3.27Zm-.83 1.66c7.89 0 8.9-.89 8.34 11.3-.2 4.3-3.48 3.83-7.51 3.83-7.36 0-7.57-.2-7.57-7.56 0-7.45.59-7.56 6.74-7.57Zm5.76 1.54a1.1 1.1 0 1 0 0 2.21 1.1 1.1 0 0 0 0-2.21ZM12.5 7.76a4.74 4.74 0 1 0 0 9.48 4.74 4.74 0 0 0 0-9.48Zm0 1.66c4.07 0 4.07 6.16 0 6.16s-4.07-6.16 0-6.16Z" fill="#fff"/></g><defs><linearGradient id="b" x1="1.61" y1="23.4" x2="24.85" y2="3.29" gradientUnits="userSpaceOnUse"><stop stop-color="#FD5"/><stop offset=".5" stop-color="#FF543E"/><stop offset="1" stop-color="#C837AB"/></linearGradient><clipPath id="a"><path fill="#fff" d="M0 0h25v25H0z"/></clipPath></defs></svg>